<svg width="18" height="18" viewBox="0 0 18 18" fill="none" xmlns="http://www.w3.org/2000/svg">
<path d="M8.8375 3.2125C9.95002 3.2125 11.0376 3.5424 11.9626 4.16048C12.8876 4.77857 13.6086 5.65707 14.0343 6.68491C14.4601 7.71274 14.5715 8.84374 14.3544 9.93488C14.1374 11.026 13.6016 12.0283 12.815 12.815C12.0283 13.6016 11.026 14.1374 9.93489 14.3544C8.84374 14.5715 7.71274 14.4601 6.68491 14.0343C5.65708 13.6086 4.77857 12.8876 4.16049 11.9626C3.54241 11.0376 3.2125 9.95002 3.2125 8.8375C3.21437 7.34623 3.8076 5.91657 4.86208 4.86208C5.91657 3.80759 7.34623 3.21436 8.8375 3.2125ZM8.8375 0.400002C7.16872 0.400002 5.53742 0.894851 4.14988 1.82198C2.76234 2.7491 1.68089 4.06686 1.04227 5.60861C0.403657 7.15036 0.236567 8.84686 0.562129 10.4836C0.887692 12.1203 1.69129 13.6237 2.87129 14.8037C4.0513 15.9837 5.55472 16.7873 7.19143 17.1129C8.82815 17.4384 10.5246 17.2713 12.0664 16.6327C13.6081 15.9941 14.9259 14.9127 15.853 13.5251C16.7802 12.1376 17.275 10.5063 17.275 8.8375C17.275 6.59973 16.3861 4.45363 14.8037 2.87129C13.2214 1.28895 11.0753 0.400002 8.8375 0.400002Z" fill="white"/>
</svg>
