<svg width="66" height="50" viewBox="0 0 66 50" fill="none" xmlns="http://www.w3.org/2000/svg">
<g clip-path="url(#clip0_6_146)">
<path d="M4.68753e-05 48.5029V1.49692C0.362047 0.60892 1.22005 -0.00608008 2.22005 -0.00608008C2.28005 -0.00608008 2.34005 -0.00408008 2.39905 0.000919921H2.39105H63.7271C63.7841 -0.00408008 63.8511 -0.00708008 63.9181 -0.00708008C65.1581 -0.00708008 66.1631 0.99792 66.1631 2.23792C66.1631 2.30492 66.16 2.37192 66.1541 2.43692L66.1551 2.42892C66.1551 11.9029 66.1551 21.3779 66.1551 30.8339C66.1551 36.4749 66.1551 42.1149 66.1551 47.7559C66.1631 47.8219 66.1671 47.8989 66.1671 47.9769C66.1671 49.0759 65.2761 49.9669 64.1771 49.9669C64.1471 49.9669 64.1171 49.9659 64.0871 49.9649H64.0911H2.64505C2.54305 49.9789 2.42605 49.9879 2.30605 49.9879C1.28705 49.9879 0.408047 49.3869 0.00504688 48.5209L-0.00195312 48.5049L4.68753e-05 48.5029ZM62.0661 4.14392H4.12505V32.0919L4.76405 31.6539L15.991 23.6039C16.388 23.2059 16.936 22.9599 17.543 22.9599C18.15 22.9599 18.698 23.2059 19.095 23.6039L30.8881 32.0559C32.7131 33.3699 34.539 34.6849 36.364 35.9629C36.696 36.2189 37.1171 36.3739 37.5751 36.3739C38.4761 36.3739 39.237 35.7759 39.482 34.9549L39.486 34.9409C39.5371 34.7709 39.5661 34.5759 39.5661 34.3729C39.5661 33.5999 39.1411 32.9259 38.5111 32.5729L38.501 32.5679C35.9577 30.7793 33.4691 28.9843 31.0351 27.1829L30.4691 26.7629L30.7981 26.5069L40.966 19.2049C41.363 18.8069 41.9111 18.5609 42.5181 18.5609C43.1251 18.5609 43.673 18.8069 44.07 19.2049L61.4121 31.6549L62.0511 32.0749L62.0661 4.14392Z" fill="#BDAE82"/>
<path d="M26.962 9.34597C29.987 9.34597 32.438 11.798 32.438 14.822C32.484 15.09 32.511 15.399 32.511 15.713C32.511 18.738 30.059 21.189 27.035 21.189C24.011 21.189 21.559 18.737 21.559 15.713C21.559 15.398 21.586 15.09 21.637 14.789L21.632 14.821C21.632 14.82 21.632 14.82 21.632 14.819C21.632 11.846 24.001 9.42597 26.955 9.34497H26.963L26.962 9.34597Z" fill="#CCBA8D"/>
</g>
<defs>
<clipPath id="clip0_6_146">
<rect width="66" height="50" fill="white"/>
</clipPath>
</defs>
</svg>
